# xmcd
#
# Track frame offsets:
#	150
#	15293
#	31736
#	55874
#	81736
#	102675
#	132197
#	164716
#	183834
#	204533
#
# Disc length: 3160 seconds
#
# Revision: 0
# Processed by: cddbd v1.5.2PL0 Copyright (c) Steve Scherf et al.
# Submitted via: EasyCDDAExtractor 9.1.0.1
#
DISCID=840c560a
DTITLE=Scoop - Palm Street Jive
DYEAR=2016
DGENRE=
TTITLE0=Up All Night
TTITLE1=Atlanta
TTITLE2=Last Train 
TTITLE3=Occam´s Razor
TTITLE4=Palm Street Jive
TTITLE5=Mr. White
TTITLE6=Good To Me
TTITLE7=49er Boogie
TTITLE8=Three Weeks and a Day
TTITLE9=Good to Me (alternative version)
EXTD=
EXTT0=
EXTT1=
EXTT2=
EXTT3=
EXTT4=
EXTT5=
EXTT6=
EXTT7=
EXTT8=
EXTT9=
PLAYORDER=
